<?xml version="1.0" encoding="utf-8"?>
<!-- Generator: Adobe Illustrator 24.1.2, SVG Export Plug-In . SVG Version: 6.00 Build 0)  -->
<svg version="1.1" id="Layer_1" xmlns="http://www.w3.org/2000/svg" xmlns:xlink="http://www.w3.org/1999/xlink" x="0px" y="0px"
	 viewBox="0 0 800 600" style="enable-background:new 0 0 800 600;" xml:space="preserve">
<style type="text/css">
	.st0{fill:#FFFFFF;}
	.st1{fill:#333333;}
	.st2{fill:#63B22F;}
	.st3{fill:none;stroke:#FFFFFF;stroke-width:2.7132;stroke-miterlimit:10;}
	.st4{fill:none;stroke:#FFFFFF;stroke-width:2.7132;stroke-linecap:round;stroke-linejoin:round;stroke-miterlimit:10;}
	.st5{fill:#68B550;}
	.st6{fill:#232323;stroke:#333333;stroke-width:0.9091;stroke-miterlimit:10;}
</style>
<g>
	<g>
		<path class="st0" d="M399.92,441.29c-97.92,0-177.58-79.66-177.58-177.58S302,86.13,399.92,86.13S577.5,165.79,577.5,263.71
			S497.84,441.29,399.92,441.29z"/>
		<path class="st1" d="M399.92,94.92c93.22,0,168.79,75.57,168.79,168.79S493.14,432.5,399.92,432.5s-168.79-75.57-168.79-168.79
			S306.7,94.92,399.92,94.92 M399.92,77.33c-102.77,0-186.38,83.61-186.38,186.38s83.61,186.38,186.38,186.38
			s186.38-83.61,186.38-186.38S502.68,77.33,399.92,77.33L399.92,77.33z"/>
	</g>
	<g>
		<path class="st0" d="M399.92,402.67c-76.62,0-138.96-62.34-138.96-138.96s62.34-138.96,138.96-138.96
			c76.62,0,138.96,62.34,138.96,138.96S476.54,402.67,399.92,402.67z"/>
		<path class="st2" d="M399.92,130.72c73.45,0,132.99,59.54,132.99,132.99S473.37,396.7,399.92,396.7s-132.99-59.54-132.99-132.99
			S326.47,130.72,399.92,130.72 M399.92,118.79c-79.91,0-144.92,65.01-144.92,144.92s65.01,144.92,144.92,144.92
			s144.92-65.01,144.92-144.92S479.83,118.79,399.92,118.79L399.92,118.79z"/>
	</g>
	<g>
		<path class="st3" d="M394.49,305.5c-0.87-0.31-1.83-0.11-2.74,0.08c-7.5,1.58-16.17,4.45-25.27-1.2
			c-4.58-2.85-13.5-11.93-16.96-18.53c-3.91-7.46-8.79-24.18-8.79-24.18c-5.34,0-10.52-1.24-10.68-1.26
			c-0.78,11.32-1.66,22.34,5.97,35.8c2.15,3.79,12.09,18.3,13.82,22.3c2.7,6.23,3.43,20.56,4.08,27.32
			c0.94,9.73-0.04,19.43,4.08,27.95c0,0,1.88,3.45,15.39,5.65c-0.99-5.75-3.77-21.16-3.45-36.74c0.31-15.7,10.05-26.69,27.95-28.26
			c0.15-0.01-0.19-3.15-0.87-5.38C396.56,307.61,395.91,306,394.49,305.5z"/>
		<path class="st3" d="M364.77,293.88c2.58,3.02,5.96,5.42,9.71,6.75c6.37,2.27,12.39,1.73,20.27-2.23
			c3.35-11.77,3.58-26,2.42-37.35c-0.55-5.34-0.86-6.6-2.43-8.48c-8.42-10.1-28.64-16.79-42.08-18.21l3.77-2.51
			c3.63,0.19,16.98,2.24,29.83,7.85c5.97,2.61,10.99,5.02,10.99,5.02s-0.08-1.81-1.26-5.65c-1.28-4.18-2.19-5.54-3.4-9.73
			c-0.2-0.71-6.5-5.73-7.65-6.36l-2.77,8.24c-5.22-0.03-13.19-2.51-20.1-1.88c-13.33-11.11-21.5-8.96-23.21-8.31
			c-0.8-6.29-2-12.43-2.91-16.7c-1.32-6.17-7.9-19.88-14.09-20.49c-4.81-0.48-7.89,1.76-9.27,6.39c-1.38,4.63,2.22,20.14,4.01,24.62
			c2.64,6.63,5.11,10.93,9.99,17.32c4.08,5.34,7.99,10.05,13.19,17.59c0.58-3.62-0.14-20.42-0.14-20.42
			c-0.02-0.41-0.05-0.83-0.08-1.25l3.38,3.06C344.49,249.74,349.71,276.26,364.77,293.88z"/>
		<path class="st3" d="M400.16,227.76c5-2.5,9.9-5.21,14.69-8.14c1.55-0.95,3.16-1.99,4.04-3.65c0.74-1.39,0.86-3.05,0.97-4.64
			c0.1-1.44,0.27-2.88,0.49-4.32c0.04-0.3,0.09-0.59,0.14-0.89c0.73,0.36,1.72,0.09,2.34-0.5c0.71-0.67,1.04-1.64,1.35-2.57
			c0.34-1.04,0.69-2.07,1.03-3.11c0.47-1.42,0.94-2.94,0.54-4.38c-0.4-1.39-2-2.52-3.29-1.94c0.02-0.27,0.05-0.54,0.07-0.81
			c0.35-5.07-0.74-16.35-3.1-20.77c-1.86-3.47-5.15-5.86-8.67-7.25c-3.36-1.33-6.95-1.85-10.52-2.32l0-0.06
			c-0.08,0.01-0.16,0.02-0.24,0.03c-0.08-0.01-0.16-0.02-0.24-0.03l0,0.06c-3.56,0.47-7.15,0.99-10.52,2.32
			c-3.51,1.39-6.81,3.78-8.67,7.25c-2.36,4.42-3.46,15.7-3.1,20.77c0.02,0.27,0.04,0.54,0.07,0.81c-1.29-0.57-2.89,0.55-3.29,1.94
			c-0.41,1.44,0.07,2.96,0.54,4.38c0.34,1.04,0.69,2.07,1.03,3.11c0.31,0.93,0.64,1.89,1.35,2.57c0.61,0.58,1.6,0.85,2.34,0.5
			c0.05,0.3,0.1,0.59,0.14,0.89c0.22,1.44,0.39,2.88,0.49,4.32c0.11,1.6,0.24,3.25,0.97,4.64c0.88,1.66,2.49,2.71,4.04,3.65
			c4.79,2.93,9.69,5.64,14.69,8.14l0,0.17c0.05-0.03,0.11-0.06,0.16-0.08c0.05,0.03,0.11,0.06,0.16,0.08L400.16,227.76z"/>
		<path class="st3" d="M324.52,103.75l-0.02,0.32C324.74,104.14,324.67,103.53,324.52,103.75z"/>
		<path class="st4" d="M204.47,128.93c-3.14-23.92,5.48-45.35,19.52-50.13c-1.06-0.02-2.12,0.05-3.19,0.21
			c-15.86,2.47-26,25.26-22.64,50.9c3.36,25.64,18.94,44.41,34.81,41.94c1.06-0.17,2.1-0.43,3.11-0.77
			C221.38,170.79,207.6,152.85,204.47,128.93z"/>
		<path class="st4" d="M218.84,126.86c-3.14-23.92,5.48-45.35,19.52-50.13c-1.06-0.02-2.12,0.05-3.19,0.21
			c-15.86,2.47-26,25.26-22.64,50.9s18.94,44.41,34.81,41.94c1.06-0.17,2.1-0.43,3.11-0.77
			C235.75,168.72,221.98,150.78,218.84,126.86z"/>
		<path class="st4" d="M232.86,124.8c-3.14-23.92,5.48-45.35,19.52-50.13c-1.06-0.02-2.12,0.05-3.19,0.21
			c-15.86,2.47-26,25.26-22.64,50.9c3.36,25.64,18.94,44.41,34.81,41.94c1.06-0.17,2.1-0.43,3.11-0.77
			C249.77,166.66,236,148.72,232.86,124.8z"/>
		<path class="st3" d="M393.88,321.53c-4.07-2.65-9.77,1.21-12.73,3.92c-3.54,3.23-5.96,7.67-6.77,12.39
			c5.54,1.54,11.55,1.31,16.95-0.66c0.96-0.35,1.94-0.78,2.65-1.51C396.89,332.7,397.82,324.09,393.88,321.53z"/>
		<path class="st3" d="M390.72,339.95c-5.04-1.08-11.38,0.74-15.81,3.05c-0.34,0.18-0.68,0.37-0.9,0.68
			c-0.26,0.37-0.29,0.85-0.3,1.3c-0.15,3.73-0.06,7.47,0.26,11.19c0.08,0.93,0.29,2.02,1.15,2.39c0.39,0.16,0.82,0.13,1.24,0.1
			c4.8-0.41,9.56-1.14,14.26-2.19c0.84-0.19,1.71-0.41,2.34-0.99c0.95-0.89,1.05-2.33,1.08-3.63
			C394.14,347.4,396.03,341.08,390.72,339.95z"/>
		<path class="st3" d="M386.09,361.04c-2.73,0.64-5.45,1.28-8.18,1.92c-0.31,0.07-0.65,0.16-0.84,0.41
			c-0.18,0.22-0.2,0.53-0.21,0.81c-0.27,5.27,0.06,10.56,0.99,15.75c0.06,0.35,0.13,0.72,0.36,1c0.39,0.49,1.1,0.55,1.72,0.57
			c3.31,0.1,6.63,0.01,9.93-0.26c0.3-0.02,0.62-0.06,0.87-0.22c0.26-0.17,0.4-0.46,0.53-0.74c2.07-4.49,2.42-9.51,2.33-14.39
			C393.48,360.1,391.49,359.77,386.09,361.04z"/>
		<path class="st3" d="M459.28,261.67c0,0-4.88,16.72-8.79,24.18c-3.45,6.59-12.37,15.68-16.96,18.53
			c-9.11,5.65-17.78,2.78-25.27,1.2c-0.91-0.19-1.87-0.39-2.74-0.08c-1.42,0.5-2.07,2.11-2.52,3.55c-0.69,2.23-1.02,5.37-0.87,5.38
			c17.9,1.57,27.63,12.56,27.95,28.26c0.31,15.58-2.47,30.99-3.45,36.74c13.5-2.2,15.39-5.65,15.39-5.65
			c4.13-8.51,3.14-18.21,4.08-27.95c0.65-6.76,1.38-21.09,4.08-27.32c1.73-3.99,11.67-18.51,13.82-22.3
			c7.63-13.46,6.75-24.48,5.97-35.8C469.79,260.43,464.62,261.67,459.28,261.67z"/>
		<path class="st3" d="M460.22,249.74c5.19-7.54,9.11-12.25,13.19-17.59c4.89-6.39,7.35-10.69,9.99-17.32
			c1.79-4.49,5.39-20,4.01-24.62c-1.38-4.63-4.47-6.87-9.27-6.39c-6.19,0.62-12.78,14.32-14.09,20.49
			c-0.91,4.28-2.11,10.41-2.91,16.7c-1.71-0.65-9.88-2.8-23.21,8.31c-6.91-0.63-14.88,1.85-20.1,1.88l-2.77-8.24
			c-1.15,0.63-7.45,5.66-7.65,6.36c-1.2,4.19-2.12,5.55-3.4,9.73c-1.18,3.84-1.26,5.65-1.26,5.65s5.02-2.42,10.99-5.02
			c12.85-5.61,26.2-7.66,29.83-7.85l3.77,2.51c-13.44,1.43-33.66,8.11-42.08,18.21c-1.57,1.88-1.88,3.14-2.43,8.48
			c-1.16,11.35-0.94,25.58,2.42,37.35c7.88,3.97,13.9,4.5,20.27,2.23c3.75-1.33,7.12-3.73,9.71-6.75
			c15.07-17.62,20.28-44.14,21.83-62.75l3.38-3.06c-0.03,0.42-0.05,0.84-0.07,1.25C460.36,229.31,459.64,246.12,460.22,249.74z"/>
		<path class="st3" d="M475.5,104.07l-0.02-0.32C475.33,103.53,475.26,104.14,475.5,104.07z"/>
		<path class="st4" d="M579.19,79.01c-1.06-0.17-2.13-0.23-3.19-0.21c14.05,4.78,22.66,26.21,19.52,50.13
			c-3.14,23.92-16.91,41.86-31.62,42.15c1.01,0.34,2.05,0.6,3.11,0.77c15.86,2.47,31.45-16.3,34.81-41.94
			C605.19,104.28,595.06,81.49,579.19,79.01z"/>
		<path class="st4" d="M587.45,127.85c3.36-25.64-6.77-48.43-22.64-50.9c-1.06-0.17-2.13-0.23-3.19-0.21
			c14.05,4.78,22.66,26.21,19.52,50.13c-3.14,23.92-16.91,41.86-31.62,42.15c1.01,0.34,2.05,0.6,3.11,0.77
			C568.51,172.26,584.09,153.48,587.45,127.85z"/>
		<path class="st4" d="M573.44,125.78c3.36-25.64-6.77-48.43-22.64-50.9c-1.06-0.17-2.13-0.23-3.19-0.21
			c14.05,4.78,22.66,26.21,19.52,50.13c-3.14,23.92-16.91,41.86-31.62,42.15c1.01,0.34,2.05,0.6,3.11,0.77
			C554.49,170.2,570.08,151.42,573.44,125.78z"/>
		<path class="st3" d="M554.72,122.38c1.89-14.42-3.81-27.24-12.74-28.64c-7.67-1.2-15.21,6.43-18.39,17.75
			c-7.63-0.98-15.35-1.83-23.01-2.57c-0.02-0.72-0.1-1.44-0.29-2.14c-0.45-1.6-1.62-3.06-3.14-3.29c-1.55-0.23-3.13,0.84-4.65,0.41
			c-1.72-0.48-2.62-2.64-4.24-3.44c-2.23-1.1-4.7,0.74-7.14,0.94c-1.02,0.08-2.04-0.12-3.05,0.04c-1.01,0.16-2.07,0.84-2.25,1.93
			c-0.04,0.27-0.08,0.62-0.33,0.69l-3.16,2.53c-37.26-2.55-67.98-2.77-72.11-2.79v0c0,0,0,0,0,0c-0.02,0-0.1,0-0.23,0
			c-0.13,0-0.21,0-0.23,0c0,0,0,0,0,0v0c-4.12,0.02-34.85,0.24-72.11,2.79l-3.16-2.53c-0.24-0.07-0.28-0.42-0.33-0.69
			c-0.18-1.1-1.24-1.78-2.25-1.93c-1.01-0.16-2.04,0.05-3.05-0.04c-2.43-0.2-4.91-2.04-7.14-0.94c-1.62,0.8-2.52,2.96-4.24,3.44
			c-1.52,0.42-3.1-0.65-4.65-0.41c-1.51,0.23-2.68,1.69-3.14,3.29c-0.2,0.69-0.28,1.41-0.29,2.14c-7.66,0.74-15.38,1.59-23.01,2.57
			c-3.18-11.32-10.72-18.95-18.39-17.75c-8.92,1.39-14.63,14.21-12.74,28.64c1.89,14.42,10.66,24.99,19.58,23.59
			c8-1.25,13.41-11.69,13.08-24.23c8.42-1.07,16.96-2,25.4-2.79c0.35,0.74,0.59,1.53,0.62,2.45c-1.49,6.76-4.42,13.85-5.94,21.88
			c-2.2,11.62-0.31,20.1-0.23,36.46c0.01,1.62-0.24,3.03-0.08,4.05c1.04,6.7,6.28,30.77,7.54,39.25c1.2,8.08,8.79,19.47,21.04,28.58
			c4.97,3.7,13.9,5.33,13.9,5.33c-7.62-9.1-12.64-13.73-17.35-19.15c-4.86-5.59-8.51-13.76-10.68-20.73
			c-4.4-14.13-5.02-23.24-3.77-28.89c0.79-3.54,2.2-6.59,6.76-8.22c3.32-1.18,6.34-1.12,8.78,0.06c0.94,0.45,2.04-7.54,1.73-19.16
			c-0.31-11.37-7.23-20.05-9.29-38.67c0.85-0.19,4.11-0.92,6.64-1.42c2.94-0.58,6.2-0.9,8.31-3.22c0.24-0.26,0.45-0.55,0.64-0.85
			c36.01-2.34,65.11-2.51,68.04-2.52c2.93,0.01,32.03,0.18,68.04,2.52c0.19,0.3,0.41,0.59,0.64,0.85c2.11,2.32,5.37,2.64,8.31,3.22
			c2.54,0.5,5.79,1.23,6.64,1.42c-2.06,18.63-8.98,27.3-9.29,38.67c-0.31,11.62,0.79,19.62,1.73,19.16
			c2.44-1.18,5.46-1.24,8.78-0.06c4.56,1.62,5.97,4.67,6.76,8.22c1.26,5.65,0.63,14.76-3.77,28.89
			c-2.17,6.96-5.81,15.13-10.68,20.73c-4.71,5.42-9.73,10.05-17.35,19.15c0,0,8.93-1.64,13.9-5.33
			c12.25-9.11,19.84-20.5,21.04-28.58c1.26-8.48,6.5-32.56,7.54-39.25c0.16-1.02-0.09-2.43-0.08-4.05
			c0.08-16.36,1.96-24.84-0.23-36.46c-1.52-8.03-4.45-15.12-5.94-21.88c0.03-0.92,0.26-1.71,0.62-2.45
			c8.44,0.79,16.97,1.71,25.4,2.79c-0.33,12.54,5.08,22.98,13.08,24.23C544.06,147.36,552.83,136.8,554.72,122.38z"/>
		<path class="st3" d="M408.68,337.18c5.4,1.97,11.42,2.21,16.95,0.66c-0.81-4.72-3.23-9.16-6.77-12.39
			c-2.96-2.71-8.66-6.57-12.73-3.92c-3.94,2.56-3.01,11.17-0.1,14.14C406.74,336.4,407.71,336.82,408.68,337.18z"/>
		<path class="st3" d="M425.99,343.68c-0.22-0.31-0.56-0.51-0.9-0.68c-4.43-2.31-10.77-4.13-15.81-3.05
			c-5.3,1.13-3.42,7.45-3.31,11.9c0.03,1.3,0.13,2.74,1.08,3.63c0.63,0.59,1.5,0.8,2.34,0.99c4.7,1.05,9.46,1.78,14.26,2.19
			c0.42,0.04,0.86,0.07,1.24-0.1c0.85-0.36,1.07-1.46,1.15-2.39c0.32-3.72,0.41-7.46,0.26-11.19
			C426.27,344.54,426.24,344.06,425.99,343.68z"/>
		<path class="st3" d="M422.93,363.36c-0.2-0.25-0.53-0.34-0.84-0.41c-2.73-0.64-5.45-1.28-8.18-1.92c-5.4-1.26-7.39-0.94-7.49,4.84
			c-0.09,4.88,0.26,9.9,2.33,14.39c0.13,0.28,0.28,0.57,0.53,0.74c0.25,0.17,0.56,0.2,0.87,0.22c3.3,0.27,6.62,0.36,9.93,0.26
			c0.63-0.02,1.33-0.08,1.72-0.57c0.22-0.28,0.29-0.64,0.36-1c0.93-5.19,1.26-10.49,0.99-15.75
			C423.13,363.89,423.1,363.59,422.93,363.36z"/>
	</g>
	
		<ellipse transform="matrix(0.9934 -0.1148 0.1148 0.9934 -11.9204 30.5594)" class="st0" cx="259.39" cy="118.79" rx="30.12" ry="48.55"/>
	
		<ellipse transform="matrix(0.1148 -0.9934 0.9934 0.1148 360.5536 642.1871)" class="st0" cx="540.61" cy="118.79" rx="48.55" ry="30.12"/>
	<g>
		<path class="st5" d="M394.49,305.5c-0.87-0.31-1.83-0.11-2.74,0.08c-7.5,1.58-16.17,4.45-25.27-1.2
			c-4.58-2.85-13.5-11.93-16.96-18.53c-3.91-7.46-8.79-24.18-8.79-24.18c-5.34,0-10.52-1.24-10.68-1.26
			c-0.78,11.32-1.66,22.34,5.97,35.8c2.15,3.79,12.09,18.3,13.82,22.3c2.7,6.23,3.43,20.56,4.08,27.32
			c0.94,9.73-0.04,19.43,4.08,27.95c0,0,1.88,3.45,15.39,5.65c-0.99-5.75-3.77-21.16-3.45-36.74c0.31-15.7,10.05-26.69,27.95-28.26
			c0.15-0.01-0.19-3.15-0.87-5.38C396.56,307.61,395.91,306,394.49,305.5z"/>
		<path class="st5" d="M364.77,293.88c2.58,3.02,5.96,5.42,9.71,6.75c6.37,2.27,12.39,1.73,20.27-2.23
			c3.35-11.77,3.58-26,2.42-37.35c-0.55-5.34-0.86-6.6-2.43-8.48c-8.42-10.1-28.64-16.79-42.08-18.21l3.77-2.51
			c3.63,0.19,16.98,2.24,29.83,7.85c5.97,2.61,10.99,5.02,10.99,5.02s-0.08-1.81-1.26-5.65c-1.28-4.18-2.19-5.54-3.4-9.73
			c-0.2-0.71-6.5-5.73-7.65-6.36l-2.77,8.24c-5.22-0.03-13.19-2.51-20.1-1.88c-13.33-11.11-21.5-8.96-23.21-8.31
			c-0.8-6.29-2-12.43-2.91-16.7c-1.32-6.17-7.9-19.88-14.09-20.49c-4.81-0.48-7.89,1.76-9.27,6.39c-1.38,4.63,2.22,20.14,4.01,24.62
			c2.64,6.63,5.11,10.93,9.99,17.32c4.08,5.34,7.99,10.05,13.19,17.59c0.58-3.62-0.14-20.42-0.14-20.42
			c-0.02-0.41-0.05-0.83-0.08-1.25l3.38,3.06C344.49,249.74,349.71,276.26,364.77,293.88z"/>
		<path class="st5" d="M400.16,227.76c5-2.5,9.9-5.21,14.69-8.14c1.55-0.95,3.16-1.99,4.04-3.65c0.74-1.39,0.86-3.05,0.97-4.64
			c0.1-1.44,0.27-2.88,0.49-4.32c0.04-0.3,0.09-0.59,0.14-0.89c0.73,0.36,1.72,0.09,2.34-0.5c0.71-0.67,1.04-1.64,1.35-2.57
			c0.34-1.04,0.69-2.07,1.03-3.11c0.47-1.42,0.94-2.94,0.54-4.38c-0.4-1.39-2-2.52-3.29-1.94c0.02-0.27,0.05-0.54,0.07-0.81
			c0.35-5.07-0.74-16.35-3.1-20.77c-1.86-3.47-5.15-5.86-8.67-7.25c-3.36-1.33-6.95-1.85-10.52-2.32l0-0.06
			c-0.08,0.01-0.16,0.02-0.24,0.03c-0.08-0.01-0.16-0.02-0.24-0.03l0,0.06c-3.56,0.47-7.15,0.99-10.52,2.32
			c-3.51,1.39-6.81,3.78-8.67,7.25c-2.36,4.42-3.46,15.7-3.1,20.77c0.02,0.27,0.04,0.54,0.07,0.81c-1.29-0.57-2.89,0.55-3.29,1.94
			c-0.41,1.44,0.07,2.96,0.54,4.38c0.34,1.04,0.69,2.07,1.03,3.11c0.31,0.93,0.64,1.89,1.35,2.57c0.61,0.58,1.6,0.85,2.34,0.5
			c0.05,0.3,0.1,0.59,0.14,0.89c0.22,1.44,0.39,2.88,0.49,4.32c0.11,1.6,0.24,3.25,0.97,4.64c0.88,1.66,2.49,2.71,4.04,3.65
			c4.79,2.93,9.69,5.64,14.69,8.14l0,0.17c0.05-0.03,0.11-0.06,0.16-0.08c0.05,0.03,0.11,0.06,0.16,0.08L400.16,227.76z"/>
		<path class="st5" d="M324.52,103.75l-0.02,0.32C324.74,104.14,324.67,103.53,324.52,103.75z"/>
		<path class="st5" d="M204.47,128.93c-3.14-23.92,5.48-45.35,19.52-50.13c-1.06-0.02-2.12,0.05-3.19,0.21
			c-15.86,2.47-26,25.26-22.64,50.9c3.36,25.64,18.94,44.41,34.81,41.94c1.06-0.17,2.1-0.43,3.11-0.77
			C221.38,170.79,207.6,152.85,204.47,128.93z"/>
		<path class="st5" d="M218.84,126.86c-3.14-23.92,5.48-45.35,19.52-50.13c-1.06-0.02-2.12,0.05-3.19,0.21
			c-15.86,2.47-26,25.26-22.64,50.9s18.94,44.41,34.81,41.94c1.06-0.17,2.1-0.43,3.11-0.77
			C235.75,168.72,221.98,150.78,218.84,126.86z"/>
		<path class="st5" d="M232.86,124.8c-3.14-23.92,5.48-45.35,19.52-50.13c-1.06-0.02-2.12,0.05-3.19,0.21
			c-15.86,2.47-26,25.26-22.64,50.9c3.36,25.64,18.94,44.41,34.81,41.94c1.06-0.17,2.1-0.43,3.11-0.77
			C249.77,166.66,236,148.72,232.86,124.8z"/>
		<path class="st5" d="M393.88,321.53c-4.07-2.65-9.77,1.21-12.73,3.92c-3.54,3.23-5.96,7.67-6.77,12.39
			c5.54,1.54,11.55,1.31,16.95-0.66c0.96-0.35,1.94-0.78,2.65-1.51C396.89,332.7,397.82,324.09,393.88,321.53z"/>
		<path class="st5" d="M390.72,339.95c-5.04-1.08-11.38,0.74-15.81,3.05c-0.34,0.18-0.68,0.37-0.9,0.68
			c-0.26,0.37-0.29,0.85-0.3,1.3c-0.15,3.73-0.06,7.47,0.26,11.19c0.08,0.93,0.29,2.02,1.15,2.39c0.39,0.16,0.82,0.13,1.24,0.1
			c4.8-0.41,9.56-1.14,14.26-2.19c0.84-0.19,1.71-0.41,2.34-0.99c0.95-0.89,1.05-2.33,1.08-3.63
			C394.14,347.4,396.03,341.08,390.72,339.95z"/>
		<path class="st5" d="M386.09,361.04c-2.73,0.64-5.45,1.28-8.18,1.92c-0.31,0.07-0.65,0.16-0.84,0.41
			c-0.18,0.22-0.2,0.53-0.21,0.81c-0.27,5.27,0.06,10.56,0.99,15.75c0.06,0.35,0.13,0.72,0.36,1c0.39,0.49,1.1,0.55,1.72,0.57
			c3.31,0.1,6.63,0.01,9.93-0.26c0.3-0.02,0.62-0.06,0.87-0.22c0.26-0.17,0.4-0.46,0.53-0.74c2.07-4.49,2.42-9.51,2.33-14.39
			C393.48,360.1,391.49,359.77,386.09,361.04z"/>
		<path class="st5" d="M459.28,261.67c0,0-4.88,16.72-8.79,24.18c-3.45,6.59-12.37,15.68-16.96,18.53
			c-9.11,5.65-17.78,2.78-25.27,1.2c-0.91-0.19-1.87-0.39-2.74-0.08c-1.42,0.5-2.07,2.11-2.52,3.55c-0.69,2.23-1.02,5.37-0.87,5.38
			c17.9,1.57,27.63,12.56,27.95,28.26c0.31,15.58-2.47,30.99-3.45,36.74c13.5-2.2,15.39-5.65,15.39-5.65
			c4.13-8.51,3.14-18.21,4.08-27.95c0.65-6.76,1.38-21.09,4.08-27.32c1.73-3.99,11.67-18.51,13.82-22.3
			c7.63-13.46,6.75-24.48,5.97-35.8C469.79,260.43,464.62,261.67,459.28,261.67z"/>
		<path class="st5" d="M460.22,249.74c5.19-7.54,9.11-12.25,13.19-17.59c4.89-6.39,7.35-10.69,9.99-17.32
			c1.79-4.49,5.39-20,4.01-24.62c-1.38-4.63-4.47-6.87-9.27-6.39c-6.19,0.62-12.78,14.32-14.09,20.49
			c-0.91,4.28-2.11,10.41-2.91,16.7c-1.71-0.65-9.88-2.8-23.21,8.31c-6.91-0.63-14.88,1.85-20.1,1.88l-2.77-8.24
			c-1.15,0.63-7.45,5.66-7.65,6.36c-1.2,4.19-2.12,5.55-3.4,9.73c-1.18,3.84-1.26,5.65-1.26,5.65s5.02-2.42,10.99-5.02
			c12.85-5.61,26.2-7.66,29.83-7.85l3.77,2.51c-13.44,1.43-33.66,8.11-42.08,18.21c-1.57,1.88-1.88,3.14-2.43,8.48
			c-1.16,11.35-0.94,25.58,2.42,37.35c7.88,3.97,13.9,4.5,20.27,2.23c3.75-1.33,7.12-3.73,9.71-6.75
			c15.07-17.62,20.28-44.14,21.83-62.75l3.38-3.06c-0.03,0.42-0.05,0.84-0.07,1.25C460.36,229.31,459.64,246.12,460.22,249.74z"/>
		<path class="st5" d="M554.72,122.38c1.89-14.42-3.81-27.24-12.74-28.64c-7.67-1.2-15.21,6.43-18.39,17.75
			c-7.63-0.98-15.35-1.83-23.01-2.57c-0.02-0.72-0.1-1.44-0.29-2.14c-0.45-1.6-1.62-3.06-3.14-3.29c-1.55-0.23-3.13,0.84-4.65,0.41
			c-1.72-0.48-2.62-2.64-4.24-3.44c-2.23-1.1-4.7,0.74-7.14,0.94c-1.02,0.08-2.04-0.12-3.05,0.04c-1.01,0.16-2.07,0.84-2.25,1.93
			c-0.04,0.27-0.08,0.62-0.33,0.69l-3.16,2.53c-37.25-2.55-67.98-2.77-72.11-2.79v0c0,0,0,0,0,0c-0.02,0-0.1,0-0.23,0
			c-0.13,0-0.21,0-0.23,0c0,0,0,0,0,0v0c-4.13,0.02-34.86,0.24-72.11,2.79l-3.16-2.53c-0.24-0.07-0.28-0.42-0.33-0.69
			c-0.18-1.1-1.24-1.78-2.25-1.93c-1.01-0.16-2.04,0.05-3.05-0.04c-2.43-0.2-4.91-2.04-7.14-0.94c-1.62,0.8-2.52,2.96-4.24,3.44
			c-1.52,0.42-3.1-0.65-4.65-0.41c-1.51,0.23-2.68,1.69-3.14,3.29c-0.2,0.69-0.28,1.41-0.29,2.14c-7.66,0.74-15.38,1.59-23.01,2.57
			c-3.18-11.32-10.72-18.95-18.39-17.75c-8.92,1.39-14.63,14.21-12.74,28.64c1.89,14.42,10.66,24.99,19.58,23.59
			c8-1.25,13.41-11.69,13.08-24.23c8.42-1.07,16.96-2,25.4-2.79c0.35,0.74,0.59,1.53,0.62,2.45c-1.49,6.76-4.42,13.85-5.94,21.88
			c-2.2,11.62-0.31,20.1-0.23,36.46c0.01,1.62-0.24,3.03-0.08,4.05c1.04,6.7,6.28,30.77,7.54,39.25c1.2,8.08,8.79,19.47,21.04,28.58
			c4.97,3.7,13.9,5.33,13.9,5.33c-7.62-9.1-12.64-13.73-17.35-19.15c-4.86-5.59-8.51-13.76-10.68-20.73
			c-4.4-14.13-5.02-23.24-3.77-28.89c0.79-3.54,2.2-6.59,6.76-8.22c3.32-1.18,6.34-1.12,8.78,0.06c0.94,0.45,2.04-7.54,1.73-19.16
			c-0.31-11.37-7.23-20.05-9.29-38.67c0.85-0.19,4.11-0.92,6.64-1.42c2.94-0.58,6.2-0.9,8.31-3.22c0.24-0.26,0.45-0.55,0.64-0.85
			c36.01-2.34,65.11-2.51,68.04-2.52c2.93,0.01,32.03,0.18,68.04,2.52c0.19,0.3,0.41,0.59,0.64,0.85c2.11,2.32,5.37,2.64,8.31,3.22
			c2.54,0.5,5.79,1.23,6.64,1.42c-2.06,18.63-8.98,27.3-9.29,38.67c-0.31,11.62,0.79,19.62,1.73,19.16
			c2.44-1.18,5.46-1.24,8.78-0.06c4.56,1.62,5.97,4.67,6.76,8.22c1.26,5.65,0.63,14.76-3.77,28.89
			c-2.17,6.96-5.81,15.13-10.68,20.73c-4.71,5.42-9.73,10.05-17.35,19.15c0,0,8.93-1.64,13.9-5.33
			c12.25-9.11,19.84-20.5,21.04-28.58c1.26-8.48,6.5-32.56,7.54-39.25c0.16-1.02-0.09-2.43-0.08-4.05
			c0.08-16.36,1.96-24.84-0.23-36.46c-1.52-8.03-4.45-15.12-5.94-21.88c0.03-0.92,0.26-1.71,0.62-2.45
			c8.44,0.79,16.97,1.71,25.4,2.79c-0.33,12.54,5.08,22.98,13.08,24.23C544.06,147.36,552.83,136.8,554.72,122.38z"/>
		<path class="st5" d="M475.5,104.07l-0.02-0.32C475.33,103.53,475.26,104.14,475.5,104.07z"/>
		<path class="st5" d="M579.19,79.01c-1.06-0.17-2.13-0.23-3.19-0.21c14.05,4.78,22.66,26.21,19.52,50.13
			c-3.14,23.92-16.91,41.86-31.62,42.15c1.01,0.34,2.05,0.6,3.11,0.77c15.86,2.47,31.45-16.3,34.81-41.94
			C605.19,104.28,595.06,81.49,579.19,79.01z"/>
		<path class="st5" d="M587.45,127.85c3.36-25.64-6.77-48.43-22.64-50.9c-1.06-0.17-2.13-0.23-3.19-0.21
			c14.05,4.78,22.66,26.21,19.52,50.13c-3.14,23.92-16.91,41.86-31.62,42.15c1.01,0.34,2.05,0.6,3.11,0.77
			C568.51,172.26,584.09,153.48,587.45,127.85z"/>
		<path class="st5" d="M573.44,125.78c3.36-25.64-6.77-48.43-22.64-50.9c-1.06-0.17-2.13-0.23-3.19-0.21
			c14.05,4.78,22.66,26.21,19.52,50.13c-3.14,23.92-16.91,41.86-31.62,42.15c1.01,0.34,2.05,0.6,3.11,0.77
			C554.49,170.2,570.08,151.42,573.44,125.78z"/>
		<path class="st5" d="M408.68,337.18c5.4,1.97,11.42,2.21,16.95,0.66c-0.81-4.72-3.23-9.16-6.77-12.39
			c-2.96-2.71-8.66-6.57-12.73-3.92c-3.94,2.56-3.01,11.17-0.1,14.14C406.74,336.4,407.71,336.82,408.68,337.18z"/>
		<path class="st5" d="M425.99,343.68c-0.22-0.31-0.56-0.51-0.9-0.68c-4.43-2.31-10.77-4.13-15.81-3.05
			c-5.3,1.13-3.42,7.45-3.31,11.9c0.03,1.3,0.13,2.74,1.08,3.63c0.63,0.59,1.5,0.8,2.34,0.99c4.7,1.05,9.46,1.78,14.26,2.19
			c0.42,0.04,0.86,0.07,1.24-0.1c0.85-0.36,1.07-1.46,1.15-2.39c0.32-3.72,0.41-7.46,0.26-11.19
			C426.27,344.54,426.24,344.06,425.99,343.68z"/>
		<path class="st5" d="M422.93,363.36c-0.2-0.25-0.53-0.34-0.84-0.41c-2.73-0.64-5.45-1.28-8.18-1.92c-5.4-1.26-7.39-0.94-7.49,4.84
			c-0.09,4.88,0.26,9.9,2.33,14.39c0.13,0.28,0.28,0.57,0.53,0.74c0.25,0.17,0.56,0.2,0.87,0.22c3.3,0.27,6.62,0.36,9.93,0.26
			c0.63-0.02,1.33-0.08,1.72-0.57c0.22-0.28,0.29-0.64,0.36-1c0.93-5.19,1.26-10.49,0.99-15.75
			C423.13,363.89,423.1,363.59,422.93,363.36z"/>
	</g>
	<g>
		<path class="st1" d="M277.77,339.55v83.66h50.99v27.48h-84.73V339.55H277.77 M297.23,320.08h-19.47h-33.74h-19.47v19.47v111.14
			v19.47h19.47h84.73h19.47v-19.47v-27.48v-19.47h-19.47h-31.52v-64.19V320.08L297.23,320.08z"/>
		<path class="st1" d="M441.72,339.55v98.92l-12.21,12.21h-76.33l-12.21-12.21v-36.94h34.04v18.62l3.05,3.05h26.87l3.05-3.05v-80.6
			H441.72 M461.19,320.08h-19.47h-33.74h-19.47v19.47v42.51h-13.5h-34.04H321.5v19.47v36.94v8.06l5.7,5.7l12.21,12.21l5.7,5.7h8.06
			h76.33h8.06l5.7-5.7l12.21-12.21l5.7-5.7v-8.06v-98.92V320.08L461.19,320.08z"/>
		<path class="st1" d="M561.25,339.55v27.48h-36.03v83.66h-33.74v-83.66h-36.03v-27.48H561.25 M580.72,320.08h-19.47H455.46h-19.47
			v19.47v27.48v19.47h19.47h16.56v64.19v19.47h19.47h33.74h19.47v-19.47V386.5h16.56h19.47v-19.47v-27.48V320.08L580.72,320.08z"/>
	</g>
	<g>
		<g>
			<polygon class="st2" points="239.87,454.84 239.87,335.39 281.92,335.39 281.92,419.05 332.91,419.05 332.91,454.84 			"/>
			<path class="st0" d="M277.77,339.55v83.66h50.99v27.48h-84.73V339.55H277.77 M286.08,331.23h-8.32h-33.74h-8.32v8.32v111.14V459
				h8.32h84.73h8.32v-8.32v-27.48v-8.32h-8.32h-42.67v-75.34V331.23L286.08,331.23z"/>
		</g>
		<g>
			<polygon class="st2" points="351.45,454.84 336.81,440.2 336.81,397.37 379.17,397.37 379.17,418.43 379.79,419.05 403.2,419.05 
				403.82,418.43 403.82,335.39 445.88,335.39 445.88,440.2 431.23,454.84 			"/>
			<path class="st0" d="M441.72,339.55v98.92l-12.21,12.21h-76.33l-12.21-12.21v-36.94h34.04v18.62l3.05,3.05h26.87l3.05-3.05v-80.6
				H441.72 M450.04,331.23h-8.32h-33.74h-8.32v8.32v75.34h-16.33v-13.36v-8.32h-8.32h-34.04h-8.32v8.32v36.94v3.45l2.44,2.44
				l12.21,12.21l2.44,2.44h3.45h76.33h3.45l2.44-2.44l12.21-12.21l2.44-2.44v-3.45v-98.92V331.23L450.04,331.23z"/>
		</g>
		<g>
			<polygon class="st2" points="487.33,454.84 487.33,371.19 451.3,371.19 451.3,335.39 565.41,335.39 565.41,371.19 529.38,371.19 
				529.38,454.84 			"/>
			<path class="st0" d="M561.25,339.55v27.48h-36.03v83.66h-33.74v-83.66h-36.03v-27.48H561.25 M569.57,331.23h-8.32H455.46h-8.32
				v8.32v27.48v8.32h8.32h27.71v75.34V459h8.32h33.74h8.32v-8.32v-75.34h27.71h8.32v-8.32v-27.48V331.23L569.57,331.23z"/>
		</g>
	</g>
	<g>
		<path class="st6" d="M225.59,480.26h29.75v5.24h-23.55v16.32h19.93v5.24h-19.93v21.63h-6.2V480.26z"/>
		<path class="st6" d="M276.67,523.44h12.03V485.5h-12.03v-5.24h30.27v5.24h-12.03v37.94h12.03v5.24h-30.27V523.44z"/>
		<path class="st6" d="M342.6,485.5h-16.02v-5.24h38.24v5.24H348.8v43.19h-6.2V485.5z"/>
		<path class="st6" d="M383.5,480.26h6.79l15.5,30.41l4.65,10.04h0.15c-0.22-4.8-0.81-10.26-0.81-15.35v-25.1h5.91v48.43h-6.79
			l-15.5-30.41l-4.65-10.04h-0.15c0.22,4.95,0.81,10.12,0.81,15.13v25.32h-5.91V480.26z"/>
		<path class="st6" d="M439.75,480.26h29.97v5.24h-23.77v15.13h20.08v5.24h-20.08v17.57h24.51v5.24h-30.71V480.26z"/>
		<path class="st6" d="M490.17,522.41l3.69-4.28c3.69,3.62,8.71,5.98,14.17,5.98c6.64,0,10.48-3.17,10.48-7.6
			c0-5.17-3.77-6.64-8.64-8.71l-7.01-3.1c-4.8-1.92-10.41-5.32-10.41-12.48c0-7.38,6.64-12.84,15.87-12.84
			c6.06,0,11.37,2.44,14.91,5.98l-3.25,3.98c-3.17-2.8-6.86-4.5-11.89-4.5c-5.61,0-9.38,2.66-9.38,7.01c0,4.65,4.5,6.35,8.64,7.97
			l6.79,3.03c5.98,2.36,10.7,5.76,10.7,12.92c0,7.68-6.5,13.8-17.13,13.8C500.65,529.57,494.52,526.77,490.17,522.41z"/>
		<path class="st6" d="M544.06,522.41l3.69-4.28c3.69,3.62,8.71,5.98,14.17,5.98c6.64,0,10.48-3.17,10.48-7.6
			c0-5.17-3.77-6.64-8.64-8.71l-7.01-3.1c-4.8-1.92-10.41-5.32-10.41-12.48c0-7.38,6.64-12.84,15.87-12.84
			c6.06,0,11.37,2.44,14.91,5.98l-3.25,3.98c-3.17-2.8-6.86-4.5-11.89-4.5c-5.61,0-9.38,2.66-9.38,7.01c0,4.65,4.5,6.35,8.64,7.97
			l6.79,3.03c5.98,2.36,10.7,5.76,10.7,12.92c0,7.68-6.5,13.8-17.13,13.8C554.54,529.57,548.41,526.77,544.06,522.41z"/>
	</g>
</g>
</svg>
